# xmcd
#
# Track frame offsets:
#	187
#	16825
#	30280
#	49422
#
# Disc length: 838 seconds
# Revision: 0
# Processed by: cddbd v1.5.2PL0 Copyright (c) Steve Scherf et al.
# Submitted via: dBpowerAMP V12.0
#
DISCID=24034404
DTITLE=Ray Charles - Lil' Bit Of Gold 2
DYEAR=1989
DGENRE=Vocal
TTITLE0=Georgia On My Mind
TTITLE1=Crying Time
TTITLE2=I Can't Stop Loving You
TTITLE3=You Are My Sunshine
EXTD=
EXTT0=
EXTT1=
EXTT2=
EXTT3=
PLAYORDER=
